<svg xmlns="http://www.w3.org/2000/svg" style="display:none">
  <!-- Use: <svg class="icon"><use href="/icons.svg#import"/></svg>
       Color follows CSS `color`; size via width/height. Stroke-based, 24x24. -->
  <defs>
    <style>
      symbol { fill: none; stroke: currentColor; stroke-width: 1.75;
               stroke-linecap: round; stroke-linejoin: round; }
    </style>
  </defs>

  <symbol id="import" viewBox="0 0 24 24">
    <path d="M4 4.5c2.5-1 4.7-1 6.5.4V18c-1.8-1.4-4-1.4-6.5-.4z"/>
    <path d="M13.5 4.9c.8-.3 1.6-.5 2.5-.4"/>
    <circle cx="17.5" cy="15.5" r="4"/>
    <path d="M17.5 13.8v3.4M15.8 15.5h3.4"/>
  </symbol>

  <symbol id="search" viewBox="0 0 24 24">
    <circle cx="11" cy="11" r="6"/>
    <path d="M15.5 15.5 20 20"/>
    <path d="M9 8.5v5M13 8.5v3"/>
  </symbol>

  <symbol id="bookmark" viewBox="0 0 24 24">
    <path d="M7 4h10v16l-5-3.5L7 20z"/>
  </symbol>

  <symbol id="print" viewBox="0 0 24 24">
    <path d="M7 9V4h10v5"/>
    <path d="M7 18H5a2 2 0 0 1-2-2v-3a2 2 0 0 1 2-2h14a2 2 0 0 1 2 2v3a2 2 0 0 1-2 2h-2"/>
    <rect x="7" y="15" width="10" height="6" rx="1"/>
    <path d="M16 12.5h.01"/>
  </symbol>

  <symbol id="add" viewBox="0 0 24 24">
    <path d="M12 5v14M5 12h14"/>
  </symbol>

  <symbol id="remove" viewBox="0 0 24 24">
    <path d="M5 12h14"/>
  </symbol>

  <symbol id="link" viewBox="0 0 24 24">
    <path d="M9.5 13.5 14 9M8 11l-2 2a3 3 0 0 0 4.2 4.2l1.3-1.3"/>
    <path d="M16 13l2-2a3 3 0 0 0-4.2-4.2l-1.3 1.3"/>
    <path d="M19 16v4m0 0 2-2m-2 2-2-2"/>
  </symbol>

  <symbol id="settings" viewBox="0 0 24 24">
    <circle cx="12" cy="12" r="3"/>
    <path d="M12 3.5v2M12 18.5v2M3.5 12h2M18.5 12h2M6 6l1.4 1.4M16.6 16.6 18 18M18 6l-1.4 1.4M7.4 16.6 6 18"/>
  </symbol>

  <symbol id="servings" viewBox="0 0 24 24">
    <path d="M4 11h16a8 8 0 0 1-8 8 8 8 0 0 1-8-8z"/>
    <path d="M12 11V7a2 2 0 0 1 2-2"/>
    <path d="M5 21h14"/>
  </symbol>

  <symbol id="time" viewBox="0 0 24 24">
    <circle cx="12" cy="12" r="8"/>
    <path d="M12 8v4l3 2"/>
  </symbol>

  <symbol id="wakelock" viewBox="0 0 24 24">
    <circle cx="12" cy="12" r="4"/>
    <path d="M12 3v2M12 19v2M3 12h2M19 12h2M5.6 5.6 7 7M17 17l1.4 1.4M18.4 5.6 17 7M7 17l-1.4 1.4"/>
  </symbol>

  <symbol id="units" viewBox="0 0 24 24">
    <path d="M4 8h11l-3-3M20 16H9l3 3"/>
  </symbol>

  <symbol id="trash" viewBox="0 0 24 24">
    <path d="M4 7h16M9 7V5h6v2M6 7l1 13h10l1-13"/>
    <path d="M10 11v6M14 11v6"/>
  </symbol>
</svg>
